<svg width="140" height="140" viewBox="0 0 140 140" fill="none" xmlns="http://www.w3.org/2000/svg">
<path id="Union" fill-rule="evenodd" clip-rule="evenodd" d="M139 70C139 108.108 108.108 139 70 139C31.8924 139 1 108.108 1 70C1 31.8924 31.8924 1 70 1C108.108 1 139 31.8924 139 70ZM140 70C140 108.66 108.66 140 70 140C31.3401 140 0 108.66 0 70C0 31.3401 31.3401 0 70 0C108.66 0 140 31.3401 140 70ZM104.166 53.6421L34.3508 53.041L34.2393 66H9.85471V70H34.2048L34.1704 74H9.85471V78H34.136L34.1337 78.2673C34.0863 83.7671 34.866 88.2399 36.4728 91.6857C38.0795 95.1315 40.2737 97.6618 43.0554 99.2767C45.837 100.892 48.9778 101.714 52.4777 101.744C56.1594 101.776 59.2791 101.076 61.837 99.643C64.3949 98.2104 66.3649 96.4205 67.7471 94.2732C69.1293 92.1259 69.8977 89.9848 70.0525 87.8496L70.7343 87.8555C71.2625 89.8601 72.0874 91.7196 73.2091 93.4338C74.3305 95.1708 75.864 96.5704 77.8095 97.6327C79.7547 98.7177 82.2273 99.2731 85.2272 99.2989C88.6362 99.3282 91.745 98.5822 94.5536 97.0609C97.385 95.5398 99.6438 93.2069 101.33 90.0622C103.039 86.9177 103.914 82.9137 103.956 78.0502L103.957 78H128V74H103.991L104.026 70H128V66H104.06L104.166 53.6421ZM41.6334 78.3319L41.7778 61.5598L66.0496 61.7688L65.9017 78.9499C65.8755 81.9953 65.2392 84.6263 63.9928 86.8429C62.7691 89.0597 61.1407 90.7617 59.1077 91.9488C57.0974 93.136 54.9105 93.7195 52.5469 93.6992C49.4789 93.6727 46.8754 92.4798 44.7366 90.1204C42.6202 87.7839 41.5858 83.8544 41.6334 78.3319ZM73.278 77.5134L73.413 61.8322L96.5939 62.0317L96.4566 77.9857C96.4167 82.6219 95.308 85.9988 93.1306 88.1165C90.9759 90.2344 88.3645 91.2801 85.2965 91.2537C82.842 91.2326 80.711 90.6006 78.9035 89.3577C77.0957 88.1376 75.7008 86.4891 74.7186 84.4124C73.7363 82.3584 73.2561 80.0588 73.278 77.5134Z" fill="white"/>
</svg>
